<svg xmlns="http://www.w3.org/2000/svg" width="420" height="238" shape-rendering="geometricPrecision" version="1.0"><defs><filter id="f2" width="200%" height="200%" x="0" y="0"><feOffset dx="5" dy="5" in="SourceGraphic" result="offOut"/><feGaussianBlur in="offOut" result="blurOut" stdDeviation="3"/><feBlend in="SourceGraphic" in2="blurOut" mode="normal"/></filter></defs><g stroke-linecap="square" stroke-linejoin="round" stroke-width="1"><path fill="gray" stroke="gray" d="M155.0 203.0 L155.0 175.0 L285.0 175.0 L285.0 203.0 z" filter="url(#f2)"/><path fill="gray" stroke="gray" d="M155.0 63.0 L285.0 63.0 L285.0 35.0 L155.0 35.0 z" filter="url(#f2)"/><path fill="gray" stroke="gray" d="M25.0 105.0 L25.0 133.0 L145.0 133.0 L145.0 105.0 z" filter="url(#f2)"/><path fill="gray" stroke="gray" d="M285.0 133.0 L395.0 133.0 L395.0 105.0 L285.0 105.0 z" filter="url(#f2)"/><path fill="#fff" stroke="#000" stroke-linecap="round" stroke-linejoin="round" stroke-width="1" d="M155.0 203.0 L155.0 175.0 L285.0 175.0 L285.0 203.0 z"/><path fill="#fff" stroke="#000" stroke-linecap="round" stroke-linejoin="round" stroke-width="1" d="M155.0 63.0 L285.0 63.0 L285.0 35.0 L155.0 35.0 z"/><path fill="#fff" stroke="#000" stroke-linecap="round" stroke-linejoin="round" stroke-width="1" d="M25.0 105.0 L25.0 133.0 L145.0 133.0 L145.0 105.0 z"/><path fill="#fff" stroke="#000" stroke-linecap="round" stroke-linejoin="round" stroke-width="1" d="M285.0 133.0 L395.0 133.0 L395.0 105.0 L285.0 105.0 z"/><path fill="none" stroke="#000" stroke-linecap="round" stroke-linejoin="round" stroke-width="1" d="M75.0 105.0 L75.0 49.0 L145.0 49.0"/><path fill="#fff" stroke="#000" stroke-dasharray="5 5" stroke-linecap="butt" stroke-linejoin="round" stroke-miterlimit="0" stroke-width="1" d="M185.0 105.0 L185.0 133.0 L245.0 133.0 L245.0 105.0 z"/><path fill="none" stroke="#000" stroke-linecap="round" stroke-linejoin="round" stroke-width="1" d="M155.0 189.0 L75.0 189.0 L75.0 147.0"/><path fill="none" stroke="#000" stroke-linecap="round" stroke-linejoin="round" stroke-width="1" d="M295.0 189.0 L335.0 189.0 L335.0 133.0"/><path fill="none" stroke="#000" stroke-linecap="round" stroke-linejoin="round" stroke-width="1" d="M335.0 91.0 L335.0 49.0 L285.0 49.0"/><path fill="#000" stroke="none" stroke-linecap="round" stroke-linejoin="round" stroke-width="1" d="M140.0 42.0 L150.0 49.0 L140.0 56.0 z"/><path fill="#000" stroke="none" stroke-linecap="round" stroke-linejoin="round" stroke-width="1" d="M210.0 84.0 L215.0 98.0 L220.0 84.0 z"/><path fill="#000" stroke="none" stroke-linecap="round" stroke-linejoin="round" stroke-width="1" d="M330.0 84.0 L335.0 98.0 L340.0 84.0 z"/><path fill="#000" stroke="none" stroke-linecap="round" stroke-linejoin="round" stroke-width="1" d="M75.0 140.0 L70.0 154.0 L80.0 154.0 z"/><path fill="#000" stroke="none" stroke-linecap="round" stroke-linejoin="round" stroke-width="1" d="M215.0 140.0 L210.0 154.0 L220.0 154.0 z"/><path fill="#000" stroke="none" stroke-linecap="round" stroke-linejoin="round" stroke-width="1" d="M300.0 182.0 L290.0 189.0 L300.0 196.0 z"/><path fill="none" stroke="#000" stroke-linecap="round" stroke-linejoin="round" stroke-width="1" d="M215.0 147.0 L215.0 175.0"/><path fill="none" stroke="#000" stroke-linecap="round" stroke-linejoin="round" stroke-width="1" d="M215.0 63.0 L215.0 91.0"/><text x="41" y="124" fill="#000" stroke="none" font-family="Courier" font-size="15"><![CDATA[4. Optimize]]></text><text x="169" y="54" fill="#000" stroke="none" font-family="Courier" font-size="15"><![CDATA[1. Benchmark]]></text><text x="165" y="194" fill="#000" stroke="none" font-family="Courier" font-size="15"><![CDATA[3. Recommend]]></text><text x="301" y="124" fill="#000" stroke="none" font-family="Courier" font-size="15"><![CDATA[2. Analyze]]></text><text x="194" y="124" fill="#000" stroke="none" font-family="Courier" font-size="15"><![CDATA[Done!]]></text></g></svg>